<svg width="200" height="200" viewBox="0 0 500 500" fill="none" xmlns="http://www.w3.org/2000/svg">
  <rect width="500" height="500" rx="80" fill="#065F46"/>
  
  <rect x="15" y="15" width="470" height="470" rx="70" stroke="#D4AF37" stroke-width="12"/>

  <g id="Symbol" transform="translate(150, 80) scale(0.8)">
    <path d="M125 0C110 0 100 15 110 30L140 80H110C50 80 0 130 0 190C0 250 50 300 110 300H140L110 350C100 365 110 380 125 380C140 380 150 365 160 350L190 300H220C280 300 330 250 330 190C330 130 280 80 220 80H190L220 30C230 15 220 0 205 0H125Z" fill="#D4AF37"/>
    <circle cx="125" cy="190" r="40" stroke="#065F46" stroke-width="15"/>
    <circle cx="205" cy="190" r="40" stroke="#065F46" stroke-width="15"/>
  </g>

  <text x="50%" y="360" text-anchor="middle" fill="#D4AF37" font-family="Montserrat, Arial, sans-serif" font-weight="bold" font-size="38">VEER MAHADEV</text>
  <text x="50%" y="410" text-anchor="middle" fill="#D4AF37" font-family="Montserrat, Arial, sans-serif" font-weight="bold" font-size="45" letter-spacing="2">PLASTIC</text>
  
  <text x="50%" y="455" text-anchor="middle" fill="#E5E7EB" font-family="Arial, sans-serif" font-weight="600" font-size="22" letter-spacing="4">WHOLESALE</text>
</svg>
