<svg xmlns="http://www.w3.org/2000/svg" viewBox="0 0 1024 1024" role="img" aria-label="Veer Mahadev Plastic Wholesale logo">
  <defs>
    <linearGradient id="bg" x1="0" y1="0" x2="1" y2="1">
      <stop offset="0" stop-color="#0f6b52"/>
      <stop offset="0.55" stop-color="#0e765b"/>
      <stop offset="1" stop-color="#084536"/>
    </linearGradient>
    <radialGradient id="bgLight" cx="48%" cy="38%" r="80%">
      <stop offset="0" stop-color="#1d8f6d" stop-opacity="0.55"/>
      <stop offset="1" stop-color="#000" stop-opacity="0"/>
    </radialGradient>
    <linearGradient id="gold" x1="0" y1="0" x2="1" y2="1">
      <stop offset="0" stop-color="#f5e7a8"/>
      <stop offset="0.35" stop-color="#dcc177"/>
      <stop offset="0.7" stop-color="#ba934b"/>
      <stop offset="1" stop-color="#f0dc98"/>
    </linearGradient>
    <filter id="emboss" x="-20%" y="-20%" width="140%" height="140%">
      <feDropShadow dx="0" dy="4" stdDeviation="3" flood-color="#2e1f06" flood-opacity="0.45"/>
    </filter>
    <marker id="arrow" viewBox="0 0 10 10" refX="8" refY="5" markerWidth="8" markerHeight="8" orient="auto-start-reverse">
      <path d="M0 0L10 5L0 10Z" fill="url(#gold)"/>
    </marker>
  </defs>

  <!-- badge -->
  <rect x="46" y="46" width="932" height="932" rx="136" fill="url(#bg)"/>
  <rect x="46" y="46" width="932" height="932" rx="136" fill="url(#bgLight)"/>
  <rect x="46" y="46" width="932" height="932" rx="136" fill="none" stroke="url(#gold)" stroke-width="12"/>
  <rect x="58" y="58" width="908" height="908" rx="124" fill="none" stroke="#8d6a2e" stroke-opacity="0.55" stroke-width="2"/>


    <g transform="rotate(120)" fill="none" stroke="url(#gold)" stroke-linecap="round" stroke-linejoin="round" stroke-width="26">
      <circle cx="0" cy="-118" r="54"/>
      <path d="M55 -218C6 -163-20 -115-17-70C-14-35 9 -9 42 4C81 19 125 12 162-13"/>
      <path d="M-24 -63C-74 -15-92 40-78 92C-61 150-18 189 47 202C101 212 148 201 188 172" marker-end="url(#arrow)"/>
    </g>

    <g transform="rotate(240)" fill="none" stroke="url(#gold)" stroke-linecap="round" stroke-linejoin="round" stroke-width="26">
      <circle cx="0" cy="-118" r="54"/>
      <path d="M55 -218C6 -163-20 -115-17-70C-14-35 9 -9 42 4C81 19 125 12 162-13"/>
      <path d="M-24 -63C-74 -15-92 40-78 92C-61 150-18 189 47 202C101 212 148 201 188 172" marker-end="url(#arrow)"/>
    </g>
  </g>

  <!-- text -->
  <g fill="url(#gold)" font-family="'Montserrat', 'Poppins', 'Arial Black', sans-serif" text-anchor="middle" filter="url(#emboss)">
    <text x="512" y="682" font-size="92" font-weight="800" letter-spacing="2">VEER MAHADEV</text>
    <text x="512" y="784" font-size="92" font-weight="800" letter-spacing="2">PLASTIC</text>
    <text x="512" y="855" font-size="60" font-weight="700" letter-spacing="3">WHOLESALE</text>
  </g>
</svg>
