<svg xmlns="http://www.w3.org/2000/svg" width="512" height="512" viewBox="0 0 512 512">
  <defs>
    <linearGradient id="bg" x1="0" x2="1">
      <stop offset="0%" stop-color="#0b5a43"/>
      <stop offset="100%" stop-color="#06392b"/>
    </linearGradient>
    <linearGradient id="gold" x1="0" x2="1">
      <stop offset="0%" stop-color="#c79a2b"/>
      <stop offset="50%" stop-color="#f5df8c"/>
      <stop offset="100%" stop-color="#b9871e"/>
    </linearGradient>
    <filter id="shadow" x="-20%" y="-20%" width="140%" height="140%">
      <feDropShadow dx="0" dy="18" stdDeviation="18" flood-color="#000" flood-opacity="0.28"/>
    </filter>
  </defs>
  <rect width="512" height="512" fill="#f4f1ea"/>
  <g filter="url(#shadow)">
    <rect x="82" y="52" width="348" height="408" rx="56" fill="url(#bg)" stroke="url(#gold)" stroke-width="8"/>
  </g>
  <g fill="none" stroke="url(#gold)" stroke-width="10" stroke-linecap="round" stroke-linejoin="round">
    <circle cx="256" cy="158" r="76" opacity="0.95"/>
    <path d="M166 196l24-74 66 54 66-54 24 74"/>
    <path d="M194 150l22 32 40-56 40 56 22-32"/>
    <circle cx="216" cy="114" r="8" fill="url(#gold)"/>
    <circle cx="256" cy="92" r="8" fill="url(#gold)"/>
    <circle cx="296" cy="114" r="8" fill="url(#gold)"/>
    <path d="M164 138h24M324 138h24" opacity="0.8"/>
  </g>
  <g fill="url(#gold)" font-family="Arial, Helvetica, sans-serif" text-anchor="middle">
    <text x="256" y="286" font-size="36" font-weight="700">VEER MAHADEV</text>
    <text x="256" y="332" font-size="54" font-weight="800">PLASTIC</text>
    <text x="256" y="382" font-size="26" letter-spacing="5">WHOLESALE</text>
  </g>
</svg>
